<svg width="24" height="24" viewBox="0 0 24 24" fill="none" xmlns="http://www.w3.org/2000/svg">
<path fill-rule="evenodd" clip-rule="evenodd" d="M16 20.399C16 22.3878 14.2091 24 12 24C9.79086 24 8 22.3878 8 20.399H1.33333C0.596954 20.399 0 19.8615 0 19.1986C0 18.5357 0.596954 17.9982 1.33333 17.9982H2.66667V10.7961C2.66357 7.53848 4.75237 4.57277 8.02667 3.18593C8.26077 1.36991 9.96925 0 12 0C14.0307 0 15.7392 1.36991 15.9733 3.18593C19.2476 4.57277 21.3364 7.53848 21.3333 10.7961V17.9982H22.6667C23.403 17.9982 24 18.5357 24 19.1986C24 19.8615 23.403 20.399 22.6667 20.399H16ZM10.9091 21C10.9091 21.5512 11.3975 21.9981 12 21.9981C12.6025 21.9981 13.0909 21.5512 13.0909 21H10.9091ZM5.45453 10.6154C5.45389 7.69065 7.6429 5.16955 10.6909 4.58461V3.23076C10.6909 2.55103 11.277 1.99999 12 1.99999C12.723 1.99999 13.3091 2.55103 13.3091 3.23076V4.58461C16.3571 5.16955 18.5461 7.69065 18.5454 10.6154V18H5.45453V10.6154Z" fill="#9CA3AF"/>
</svg>
