<svg width="14" height="14" viewBox="0 0 14 14" fill="none" xmlns="http://www.w3.org/2000/svg">
<path fill-rule="evenodd" clip-rule="evenodd" d="M10.0537 9.05693L13.8343 12.8445C14.071 13.1247 14.052 13.5399 13.7909 13.7974C13.5297 14.0549 13.1143 14.0679 12.8375 13.8273L9.06088 10.0507C6.71908 11.8698 3.36647 11.5547 1.40465 9.33105C-0.557163 7.10741 -0.451989 3.74166 1.64483 1.64483C3.74166 -0.451989 7.1074 -0.557163 9.33105 1.40465C11.5535 3.36537 11.8695 6.71531 10.0537 9.05693ZM9.82602 5.61422C9.82602 7.94035 7.94033 9.82605 5.6142 9.82605C3.28807 9.82605 1.40237 7.94035 1.40237 5.61422C1.40237 3.2881 3.28807 1.4024 5.6142 1.4024C7.94033 1.4024 9.82602 3.2881 9.82602 5.61422Z" fill="#4B5563"/>
</svg>
