<svg width="16" height="16" viewBox="0 0 16 16" fill="none" xmlns="http://www.w3.org/2000/svg">
<path fill-rule="evenodd" clip-rule="evenodd" d="M0 8C0 12.4183 3.58172 16 8 16C12.4183 16 16 12.4183 16 8C16 3.58172 12.4183 0 8 0C3.58172 0 0 3.58172 0 8ZM14.4 8C14.4 11.5346 11.5346 14.4 8 14.4C4.46538 14.4 1.6 11.5346 1.6 8C1.6 4.46538 4.46538 1.6 8 1.6C11.5346 1.6 14.4 4.46538 14.4 8ZM6.04823 5.544L11.1442 3.848C11.4303 3.75508 11.7443 3.83049 11.957 4.04319C12.1697 4.25589 12.2451 4.56991 12.1522 4.856L10.4562 9.952C10.3765 10.1897 10.1899 10.3763 9.95223 10.456L4.85623 12.152C4.57014 12.2449 4.25611 12.1695 4.04342 11.9568C3.83072 11.7441 3.75531 11.4301 3.84823 11.144L5.54423 6.048C5.62397 5.81031 5.81054 5.62374 6.04823 5.544ZM5.87497 10.127L5.872 10.128V10.136L5.87497 10.127ZM5.87497 10.127L9.072 9.064L10.128 5.864L6.928 6.936L5.87497 10.127Z" fill="#6B7280"/>
</svg>
