<svg width="14" height="14" viewBox="0 0 14 14" fill="none" xmlns="http://www.w3.org/2000/svg">
<path fill-rule="evenodd" clip-rule="evenodd" d="M9.33333 11.8994C9.33333 13.0595 8.28866 14 7 14C5.71134 14 4.66667 13.0595 4.66667 11.8994H0.777778C0.348223 11.8994 0 11.5859 0 11.1992C0 10.8125 0.348223 10.499 0.777778 10.499H1.55556V6.29775C1.55375 4.39745 2.77221 2.66745 4.68222 1.85846C4.81878 0.799116 5.8154 0 7 0C8.1846 0 9.18122 0.799116 9.31778 1.85846C11.2278 2.66745 12.4463 4.39745 12.4444 6.29775V10.499H13.2222C13.6518 10.499 14 10.8125 14 11.1992C14 11.5859 13.6518 11.8994 13.2222 11.8994H9.33333ZM6.36377 12.25C6.36377 12.5722 6.64868 12.8333 7.00013 12.8333C7.35159 12.8333 7.6365 12.5722 7.6365 12.25H6.36377ZM3.18164 6.19233C3.18127 4.48624 4.45819 3.0156 6.23619 2.67438V1.88464C6.23619 1.48812 6.57808 1.16669 6.99982 1.16669C7.42157 1.16669 7.76346 1.48812 7.76346 1.88464V2.67438C9.54146 3.0156 10.8184 4.48624 10.818 6.19233V10.5H3.18164V6.19233Z" fill="white"/>
</svg>
