<svg width="14" height="14" viewBox="0 0 14 14" fill="none" xmlns="http://www.w3.org/2000/svg">
<path fill-rule="evenodd" clip-rule="evenodd" d="M12.6 12.4444V4.66667C13.3732 4.66667 14 3.97022 14 3.11111V1.55556C14 0.696446 13.3732 0 12.6 0H1.4C0.63 0 0 0.7 0 1.55556V3.11111C0 3.97022 0.626801 4.66667 1.4 4.66667V12.4444C1.4 13.3036 2.0268 14 2.8 14H11.2C11.9732 14 12.6 13.3036 12.6 12.4444ZM12.6 1.55555V3.1111H1.39999V1.55555H12.6ZM2.7998 4.66669V12.4445H11.1998V4.66669H2.7998ZM8.39999 6.22223H5.59999C5.21339 6.22223 4.89999 6.57045 4.89999 7.00001C4.89999 7.42956 5.21339 7.77778 5.59999 7.77778H8.39999C8.78659 7.77778 9.09999 7.42956 9.09999 7.00001C9.09999 6.57045 8.78659 6.22223 8.39999 6.22223Z" fill="white"/>
</svg>
