<svg width="16" height="16" viewBox="0 0 16 16" fill="none" xmlns="http://www.w3.org/2000/svg">
<path d="M8.66602 13.3333L13.3327 8.66667" stroke="#6B7280" stroke-linecap="round" stroke-linejoin="round"/>
<path d="M8.66602 13.3333V9.33334C8.66602 9.15653 8.73625 8.98696 8.86128 8.86193C8.9863 8.73691 9.15587 8.66667 9.33268 8.66667H13.3327V4.00001C13.3327 3.64638 13.1922 3.30724 12.9422 3.0572C12.6921 2.80715 12.353 2.66667 11.9993 2.66667H3.99935C3.64573 2.66667 3.30659 2.80715 3.05654 3.0572C2.80649 3.30724 2.66602 3.64638 2.66602 4.00001V12C2.66602 12.3536 2.80649 12.6928 3.05654 12.9428C3.30659 13.1929 3.64573 13.3333 3.99935 13.3333H8.66602Z" stroke="#6B7280" stroke-linecap="round" stroke-linejoin="round"/>
</svg>
