<svg width="16" height="16" viewBox="0 0 16 16" fill="none" xmlns="http://www.w3.org/2000/svg">
<path fill-rule="evenodd" clip-rule="evenodd" d="M5.14286 0H1.71429C0.771429 0 0 0.771429 0 1.71429V5.14286C0 6.08963 0.767512 6.85714 1.71429 6.85714H5.14286C6.08963 6.85714 6.85714 6.08963 6.85714 5.14286V1.71429C6.85714 0.767512 6.08963 0 5.14286 0ZM1.14307 5.71428V1.14285H5.7145V5.71428H1.14307ZM10.8574 0H14.2859C15.2327 0 16.0002 0.767512 16.0002 1.71429V5.14286C16.0002 6.08963 15.2327 6.85714 14.2859 6.85714H10.8574C9.91058 6.85714 9.14307 6.08963 9.14307 5.14286V1.71429C9.14307 0.771429 9.9145 0 10.8574 0ZM10.2857 5.71429V1.14286H14.8571V5.71429H10.2857ZM1.71429 9.14286H5.14286C6.08963 9.14286 6.85714 9.91037 6.85714 10.8571V14.2857C6.85714 15.2325 6.08963 16 5.14286 16H1.71429C0.767512 16 0 15.2325 0 14.2857V10.8571C0 9.91429 0.771429 9.14286 1.71429 9.14286ZM1.14307 14.8571V10.2857H5.7145V14.8571H1.14307ZM10.8574 9.14285H14.2859C15.2327 9.14285 16.0002 9.91037 16.0002 10.8571V14.2857C16.0002 15.2325 15.2327 16 14.2859 16H10.8574C9.91058 16 9.14307 15.2325 9.14307 14.2857V10.8571C9.14307 9.91428 9.9145 9.14285 10.8574 9.14285ZM10.2857 14.8571V10.2857H14.8571V14.8571H10.2857Z" fill="#6B7280"/>
</svg>
