<svg width="16" height="16" viewBox="0 0 16 16" fill="none" xmlns="http://www.w3.org/2000/svg">
<path d="M10 2V4.66667C10 4.84348 10.0702 5.01305 10.1953 5.13807C10.3203 5.2631 10.4899 5.33333 10.6667 5.33333H13.3333" stroke="#6B7280" stroke-linecap="round" stroke-linejoin="round"/>
<path d="M12 11.3333H7.33333C6.97971 11.3333 6.64057 11.1929 6.39052 10.9428C6.14048 10.6928 6 10.3536 6 10V3.33333C6 2.97971 6.14048 2.64057 6.39052 2.39052C6.64057 2.14048 6.97971 2 7.33333 2H10L13.3333 5.33333V10C13.3333 10.3536 13.1929 10.6928 12.9428 10.9428C12.6928 11.1929 12.3536 11.3333 12 11.3333Z" stroke="#6B7280" stroke-linecap="round" stroke-linejoin="round"/>
<path d="M10.6673 11.3333V12.6667C10.6673 13.0203 10.5268 13.3594 10.2768 13.6095C10.0267 13.8595 9.68761 14 9.33398 14H4.66732C4.3137 14 3.97456 13.8595 3.72451 13.6095C3.47446 13.3594 3.33398 13.0203 3.33398 12.6667V5.99999C3.33398 5.64637 3.47446 5.30723 3.72451 5.05718C3.97456 4.80713 4.3137 4.66666 4.66732 4.66666H6.00065" stroke="#6B7280" stroke-linecap="round" stroke-linejoin="round"/>
</svg>
