<svg width="16" height="16" viewBox="0 0 16 16" fill="none" xmlns="http://www.w3.org/2000/svg">
<path d="M9.3335 2V4.66667C9.3335 4.84348 9.40373 5.01305 9.52876 5.13807C9.65378 5.2631 9.82335 5.33333 10.0002 5.33333H12.6668" stroke="#6B7280" stroke-linecap="round" stroke-linejoin="round"/>
<path d="M11.3335 14H4.66683C4.31321 14 3.97407 13.8595 3.72402 13.6095C3.47397 13.3594 3.3335 13.0203 3.3335 12.6667V3.33333C3.3335 2.97971 3.47397 2.64057 3.72402 2.39052C3.97407 2.14048 4.31321 2 4.66683 2H9.3335L12.6668 5.33333V12.6667C12.6668 13.0203 12.5264 13.3594 12.2763 13.6095C12.0263 13.8595 11.6871 14 11.3335 14Z" stroke="#6B7280" stroke-linecap="round" stroke-linejoin="round"/>
<path d="M6 10L7.33333 11.3333L10 8.66667" stroke="#6B7280" stroke-linecap="round" stroke-linejoin="round"/>
</svg>
