<svg width="144" height="30" viewBox="0 0 144 30" fill="none" xmlns="http://www.w3.org/2000/svg">
<path fill-rule="evenodd" clip-rule="evenodd" d="M5.99695 1.17136C7.34305 2.73354 7.34305 5.26646 5.99695 6.82864C4.62134 8.39045 2.40787 8.39045 1.03194 6.82864C-0.343981 5.26646 -0.343981 2.73354 1.03194 1.17136C2.40787 -0.390454 4.62134 -0.390454 5.99695 1.17136ZM18.0168 3.89439C18.0168 1.74321 16.2817 0 14.1134 0C11.9448 0.00499696 10.2097 1.75071 10.2097 3.90331C10.2097 8.06397 8.07395 10.1966 3.90338 10.1966C1.73476 10.1966 0 11.9555 0 14.1003C0 15.1428 0.400246 16.1336 1.13421 16.87C1.76802 17.5017 2.63576 17.9161 3.57002 17.9911L4.07006 18C6.13889 17.9172 7.80748 16.2029 7.80748 14.1003C7.80748 9.93996 9.94284 7.80663 14.1134 7.80663C16.2817 7.80663 18.0168 6.05913 18.0168 3.90331V3.89439ZM13.6428 28.9939C13.0093 28.9507 12.3424 28.7401 11.7757 28.3618C11.5423 28.2183 11.3422 28.0534 11.1428 27.8703V27.8582C10.4092 27.1232 10.0093 26.1377 10.0093 25.1008C10.0093 22.956 11.7757 21.1973 13.9094 21.1973H13.9099C13.943 21.1973 14.0093 21.1973 14.0423 21.197C14.7091 21.1899 15.3091 21.1281 15.8762 21.0125C18.1425 20.5359 19.5426 19.1382 20.0425 16.8509C20.1426 16.2991 20.2094 15.6952 20.2094 15.0398V14.9042C20.2094 12.7511 21.9426 11.0054 24.1095 11C25.1758 11 26.1092 11.408 26.8093 12.0726C26.8258 12.0815 26.8341 12.0904 26.8424 12.0994C26.8508 12.1085 26.8592 12.1175 26.8761 12.1265V12.1408C28.4095 13.6645 28.4095 16.137 26.8761 17.6612C26.8425 17.6908 26.8093 17.7208 26.8093 17.7508C26.1092 18.4057 25.1426 18.8073 24.1095 18.8073C23.4095 18.8073 22.7759 18.869 22.1759 18.9929C19.8757 19.4705 18.4759 20.8665 18.0092 23.1502C17.8756 23.7412 17.8091 24.3916 17.8091 25.1008C17.8091 26.1356 17.4093 27.0754 16.7757 27.7743C16.7425 27.8018 16.7092 27.8296 16.6756 27.8582C15.9427 28.5931 14.9757 28.9739 14.0091 29L13.6428 28.9939ZM18.5202 14.9869C18.5202 13.9458 18.075 13.0016 17.3896 12.3059C18.0944 12.9994 18.4699 13.8822 18.5227 14.7796C18.521 14.855 18.5202 14.931 18.5202 15.0078C18.5202 15.5932 18.3867 16.1485 18.1513 16.6462C17.9589 17.0445 17.6932 17.4178 17.355 17.7466C17.3738 17.7312 17.3925 17.716 17.4112 17.7009L17.4113 17.7008L17.4579 17.6629C17.738 17.3646 17.9737 17.0218 18.1513 16.6462C18.4355 16.0581 18.56 15.4152 18.5227 14.7796C18.536 14.1629 18.6039 13.5929 18.7263 13.0697C19.2057 10.8007 20.6445 9.4139 23.009 8.93982C23.6258 8.81714 24.277 8.75544 24.9966 8.75544C26.0586 8.75544 27.0526 8.35689 27.7722 7.70552C27.7722 7.67538 27.806 7.64595 27.8405 7.61687C29.4168 6.1067 29.4167 3.66008 27.8751 2.14495C27.8405 2.14069 27.8405 2.13679 27.8405 2.13254C27.1213 1.43259 26.1273 1 24.9966 1C22.7691 1.00461 20.9876 2.73923 20.9876 4.87737V5.00856C20.9876 5.66135 20.9189 6.26272 20.816 6.81197C20.3025 9.08449 18.8633 10.4727 16.5333 10.9461C15.9845 11.0531 15.4023 11.1134 14.7856 11.1269C14.6827 11.1209 14.5799 11.1177 14.5115 11.1177H14.477C13.4834 11.1198 12.5239 11.4921 11.8388 12.1031C11.8057 12.1294 11.7806 12.1554 11.7558 12.1811C11.7292 12.2087 11.703 12.2358 11.6676 12.2626C11.6331 12.3147 11.5644 12.3647 11.4961 12.4123C10.8794 13.0987 10.4679 14.0036 10.4679 14.995C10.4679 15.7021 10.4338 16.3495 10.2968 16.9374C9.8174 19.2025 8.37783 20.5875 6.01368 21.0627C5.39693 21.1853 4.74602 21.2474 3.99189 21.2474C2.96409 21.2474 2.00462 21.6374 1.28502 22.2725L1.25311 22.31L1.25306 22.3101C1.22945 22.3379 1.20598 22.3655 1.18217 22.3927C-0.394055 23.9068 -0.394055 26.3626 1.18217 27.8767C1.83308 28.5046 2.72422 28.9167 3.68369 28.9908L4.16343 29C6.32187 28.9177 8.03547 27.2143 8.03547 25.1255V24.8961C8.03547 24.2833 8.10417 23.716 8.20665 23.1948C8.72091 20.9191 10.1598 19.5291 12.4897 19.0561C13.0378 18.9472 13.6204 18.8869 14.2717 18.8756L14.3058 18.8749C14.3742 18.8738 14.4425 18.8731 14.5115 18.8731C16.7049 18.8731 18.5202 17.1367 18.5202 14.995V14.9869ZM27.9951 22.0252C26.6193 20.6583 24.4059 20.6583 23.0303 22.0252C21.6839 23.3921 21.6839 25.6084 23.0303 26.975C24.4059 28.3417 26.6193 28.3417 27.9951 26.975C29.371 25.6084 29.371 23.3921 27.9951 22.0252ZM67.0521 7.54346C66.5904 7.98779 66.0418 8.20996 65.4065 8.20996C64.7627 8.20996 64.2099 7.97933 63.7482 7.51807C63.2865 7.0568 63.0557 6.50456 63.0557 5.86133C63.0557 5.22656 63.2865 4.67855 63.7482 4.21729C64.2099 3.75602 64.7627 3.52539 65.4065 3.52539C66.0418 3.52539 66.5904 3.75602 67.0521 4.21729C67.5138 4.67855 67.7446 5.22656 67.7446 5.86133C67.7446 6.53841 67.5138 7.09912 67.0521 7.54346ZM49.7105 23V19.75H47.3089V14.6338H49.4945L53.8149 23H59.6475V19.75H57.1696L54.0818 13.9736C55.1915 13.4743 56.0196 12.8268 56.566 12.0312C57.1124 11.2357 57.3856 10.2539 57.3856 9.08594C57.3856 7.39323 56.7863 6.10042 55.5876 5.20752C54.3889 4.31462 52.7306 3.86816 50.6127 3.86816H39.6846V7.11816H42.3149V19.75H39.6846V23H49.7105ZM49.1389 11.5615H47.3091V7.11816H49.571C50.3757 7.11816 51.0111 7.30013 51.477 7.66406C51.943 8.02799 52.1759 8.57389 52.1759 9.30176C52.1759 10.8083 51.1636 11.5615 49.1389 11.5615ZM69.4598 23V19.9277H67.4775V9.65723H61.2129V12.7803H63.246V19.9277H61.2129V23H69.4598ZM79.3108 25.9326V29.0049H70.1616V25.9326H72.4235V12.7803H70.5174V9.65723H76.6677V11.3203C77.8452 10.0931 79.1625 9.47949 80.6196 9.47949C81.7971 9.47949 82.8158 9.78629 83.6757 10.3999C84.5355 11.0135 85.1899 11.8493 85.6389 12.9072C86.0879 13.9652 86.3124 15.1543 86.3124 16.4746C86.3124 17.778 86.0795 18.9481 85.6135 19.9849C85.1476 21.0216 84.4762 21.8363 83.5994 22.4287C82.7226 23.0212 81.7124 23.3174 80.5688 23.3174C79.1625 23.3174 77.8622 22.763 76.6677 21.6543V25.9326H79.3108ZM79.336 19.9531C78.5227 19.9531 77.8641 19.6167 77.36 18.9438C76.856 18.271 76.6039 17.431 76.6039 16.4238C76.6039 15.349 76.8475 14.4941 77.3346 13.8594C77.8217 13.2246 78.4719 12.9072 79.2851 12.9072C80.1408 12.9072 80.7973 13.2119 81.2547 13.8213C81.7122 14.4307 81.9409 15.2812 81.9409 16.373C81.9409 17.5156 81.7164 18.3979 81.2675 19.02C80.8185 19.6421 80.1746 19.9531 79.336 19.9531ZM97.0017 25.9326V29.0049H87.8525V25.9326H90.1144V12.7803H88.2083V9.65723H94.3586V11.3203C95.5361 10.0931 96.8534 9.47949 98.3105 9.47949C99.4881 9.47949 100.507 9.78629 101.367 10.3999C102.226 11.0135 102.881 11.8493 103.33 12.9072C103.779 13.9652 104.003 15.1543 104.003 16.4746C104.003 17.778 103.77 18.9481 103.304 19.9849C102.839 21.0216 102.167 21.8363 101.29 22.4287C100.414 23.0212 99.4033 23.3174 98.2597 23.3174C96.8534 23.3174 95.5531 22.763 94.3586 21.6543V25.9326H97.0017ZM97.0269 19.9531C96.2136 19.9531 95.5549 19.6167 95.0509 18.9438C94.5468 18.271 94.2948 17.431 94.2948 16.4238C94.2948 15.349 94.5384 14.4941 95.0255 13.8594C95.5126 13.2246 96.1628 12.9072 96.976 12.9072C97.8316 12.9072 98.4882 13.2119 98.9456 13.8213C99.4031 14.4307 99.6318 15.2812 99.6318 16.373C99.6318 17.5156 99.4073 18.3979 98.9583 19.02C98.5094 19.6421 97.8655 19.9531 97.0269 19.9531ZM113.892 19.9277V23H105.645V19.9277H107.729V6.92773H105.645V3.86816H111.999V19.9277H113.892ZM123.005 23.3174C124.479 23.3174 125.754 23.0444 126.83 22.4985C127.906 21.9526 128.808 21.1338 129.536 20.042L126.233 18.9756C125.225 20.0251 124.191 20.5498 123.132 20.5498C122.175 20.5498 121.393 20.2515 120.788 19.6548C120.182 19.0581 119.828 18.2477 119.727 17.2236H129.689C129.672 15.6494 129.382 14.2677 128.819 13.0786C128.255 11.8895 127.453 10.9712 126.411 10.3237C125.369 9.67627 124.144 9.35254 122.738 9.35254C121.442 9.35254 120.241 9.66357 119.136 10.2856C118.03 10.9077 117.153 11.7689 116.505 12.8691C115.857 13.9694 115.533 15.1966 115.533 16.5508C115.533 17.9219 115.845 19.1152 116.467 20.1309C117.09 21.1465 117.967 21.9315 119.098 22.4858C120.228 23.0402 121.531 23.3174 123.005 23.3174ZM119.829 14.8623H125.394C125.276 14.0667 124.952 13.4214 124.422 12.9263C123.893 12.4312 123.264 12.1836 122.535 12.1836C121.773 12.1836 121.161 12.4036 120.699 12.8438C120.237 13.2839 119.947 13.9567 119.829 14.8623ZM138.638 23.3174C140.29 23.3174 141.596 22.9259 142.558 22.1431C143.519 21.3602 144 20.2663 144 18.8613C144 17.998 143.801 17.2638 143.403 16.6587C143.005 16.0535 142.306 15.5457 141.306 15.1353C140.307 14.7248 138.938 14.4095 137.202 14.1895C136.583 14.0964 136.113 13.9779 135.791 13.834C135.469 13.6901 135.308 13.4701 135.308 13.1738C135.308 12.4967 135.914 12.1582 137.126 12.1582C138.811 12.1582 139.786 12.6279 140.048 13.5674H143.085V9.65723H140.048V10.127C139.023 9.69531 137.909 9.47949 136.706 9.47949C135.215 9.47949 134.014 9.8265 133.104 10.5205C132.193 11.2145 131.738 12.1667 131.738 13.377C131.738 14.5618 132.176 15.5034 133.053 16.2017C133.93 16.8999 135.368 17.4056 137.367 17.7188C138.265 17.8796 138.932 18.0234 139.368 18.1504C139.805 18.2773 140.099 18.4233 140.252 18.5884C140.404 18.7534 140.48 18.9841 140.48 19.2803C140.48 19.7119 140.298 20.0145 139.934 20.188C139.57 20.3615 139.006 20.4482 138.244 20.4482C137.464 20.4482 136.81 20.2663 136.281 19.9023C135.751 19.5384 135.444 19.0391 135.359 18.4043H132.259V23H135.359V22.3525C135.935 22.9958 137.028 23.3174 138.638 23.3174Z" fill="url(#paint0_linear_20_1750)" fill-opacity="0.8"/>
<defs>
<linearGradient id="paint0_linear_20_1750" x1="0" y1="14.5024" x2="144" y2="14.5024" gradientUnits="userSpaceOnUse">
<stop stop-color="#AC32E4"/>
<stop offset="0.48" stop-color="#7918F2"/>
<stop offset="1" stop-color="#4801FF"/>
</linearGradient>
</defs>
</svg>
