<svg width="16" height="16" viewBox="0 0 16 16" fill="none" xmlns="http://www.w3.org/2000/svg">
<path d="M5.66667 6.33333C6.03486 6.33333 6.33333 6.03486 6.33333 5.66667C6.33333 5.29848 6.03486 5 5.66667 5C5.29848 5 5 5.29848 5 5.66667C5 6.03486 5.29848 6.33333 5.66667 6.33333Z" fill="#6B7280"/>
<path d="M2.66797 4.66666V7.23932C2.66797 7.59732 2.80997 7.94066 3.0633 8.19399L8.47397 13.6047C8.59933 13.73 8.74816 13.8295 8.91197 13.8974C9.07577 13.9652 9.25133 14.0001 9.42864 14.0001C9.60594 14.0001 9.7815 13.9652 9.94531 13.8974C10.1091 13.8295 10.2579 13.73 10.3833 13.6047L13.606 10.382C13.7313 10.2566 13.8308 10.1078 13.8987 9.94399C13.9665 9.78019 14.0014 9.60463 14.0014 9.42732C14.0014 9.25002 13.9665 9.07446 13.8987 8.91065C13.8308 8.74685 13.7313 8.59802 13.606 8.47266L8.19464 3.06199C7.9416 2.80899 7.59846 2.66679 7.24064 2.66666H4.66797C4.13754 2.66666 3.62883 2.87737 3.25376 3.25244C2.87868 3.62752 2.66797 4.13622 2.66797 4.66666V4.66666Z" stroke="#6B7280" stroke-width="1.33333" stroke-linecap="round" stroke-linejoin="round"/>
</svg>
