<svg width="16" height="16"  viewBox="0 0 16 16" fill="none" xmlns="http://www.w3.org/2000/svg">
<path fill-rule="evenodd" clip-rule="evenodd" d="M10.4 14.4C10.4 15.2837 11.1163 16 12 16H14.4C15.2837 16 16 15.2837 16 14.4V12C16 11.1163 15.2837 10.4 14.4 10.4H13.6C13.1582 10.4 12.8 10.0418 12.8 9.6C12.8 9.15817 13.1582 8.8 13.6 8.8H14.4C15.2837 8.8 16 8.08366 16 7.2V4.8C16 3.91634 15.2837 3.2 14.4 3.2H12V2.4C12 1.07452 10.9255 0 9.6 0C8.27452 0 7.2 1.07452 7.2 2.4V3.2H4.8C3.92 3.2 3.2 3.912 3.2 4.8V7.2H2.4C1.54256 7.2 0.750258 7.65744 0.321539 8.4C-0.10718 9.14256 -0.10718 10.0574 0.321539 10.8C0.750258 11.5426 1.54256 12 2.4 12H3.2V14.4C3.2 15.2837 3.91634 16 4.8 16H7.2C8.08366 16 8.8 15.2837 8.8 14.4V13.6C8.8 13.1582 9.15817 12.8 9.6 12.8C10.0418 12.8 10.4 13.1582 10.4 13.6V14.4ZM14.4 12V14.4H12V13.6C12 12.7426 11.5426 11.9503 10.8 11.5215C10.0574 11.0928 9.14256 11.0928 8.4 11.5215C7.65744 11.9503 7.2 12.7426 7.2 13.6V14.4H4.8V12C4.8 11.1163 4.08366 10.4 3.2 10.4H2.4C1.95817 10.4 1.6 10.0418 1.6 9.6C1.6 9.15817 1.95817 8.8 2.4 8.8H3.2C4.08366 8.8 4.8 8.08366 4.8 7.2V4.8H7.2C8.08366 4.8 8.8 4.08366 8.8 3.2V2.4C8.8 1.95817 9.15817 1.6 9.6 1.6C10.0418 1.6 10.4 1.95817 10.4 2.4V3.2C10.4 4.08366 11.1163 4.8 12 4.8H14.4V7.2H13.6C12.7426 7.2 11.9503 7.65744 11.5215 8.4C11.0928 9.14256 11.0928 10.0574 11.5215 10.8C11.9503 11.5426 12.7426 12 13.6 12H14.4Z" fill="#6B7280"/>
</svg>
