<svg width="14" height="14" viewBox="0 0 14 14" fill="none" xmlns="http://www.w3.org/2000/svg">
<path fill-rule="evenodd" clip-rule="evenodd" d="M4.77257 1.4V1.799C4.25798 1.99811 3.77561 2.26438 3.33959 2.59L2.96835 2.38C2.25885 1.99414 1.35193 2.22277 0.941391 2.891L0.198914 4.109C-0.205336 4.77635 0.0365796 5.62616 0.740922 6.013L1.11216 6.223C1.03613 6.73852 1.03613 7.26148 1.11216 7.777L0.740922 7.98C0.0321454 8.36705 -0.210364 9.22209 0.198914 9.891L0.941391 11.109C1.13858 11.4318 1.46411 11.6672 1.84593 11.7632C2.22775 11.8591 2.63436 11.8075 2.97578 11.62L3.34701 11.417C3.78163 11.7371 4.26143 11.9987 4.77257 12.194V12.6C4.77257 13.3732 5.43741 14 6.25752 14H7.74248C8.56259 14 9.22743 13.3732 9.22743 12.6V12.201C9.74202 12.0019 10.2244 11.7356 10.6604 11.41L11.0316 11.62C11.7412 12.0059 12.6481 11.7772 13.0586 11.109L13.8011 9.891C14.2053 9.22365 13.9634 8.37384 13.2591 7.987L12.8878 7.777C12.9639 7.26148 12.9639 6.73852 12.8878 6.223L13.2591 6.02C13.9679 5.63295 14.2104 4.77791 13.8011 4.109L13.0586 2.891C12.8614 2.56817 12.5359 2.33275 12.1541 2.23685C11.7723 2.14094 11.3656 2.19246 11.0242 2.38L10.653 2.583C10.2184 2.26286 9.73857 2.00135 9.22743 1.806V1.4C9.22743 0.626801 8.56259 0 7.74248 0H6.25752C5.4408 0 4.77257 0.63 4.77257 1.4ZM3.54006 4.305L3.941 3.948C4.44759 3.49344 5.06059 3.15772 5.73036 2.968L6.25752 2.828V1.4H7.74248V2.828L8.27706 2.968C8.94419 3.15872 9.55454 3.49439 10.059 3.948L10.4599 4.305L11.7741 3.591L12.5166 4.809L11.2098 5.516L11.3361 6.027C11.4971 6.66678 11.4971 7.33322 11.3361 7.973L11.2098 8.484L12.5166 9.191L11.7741 10.409L10.4599 9.695L10.059 10.052C9.55241 10.5066 8.93941 10.8423 8.26963 11.032L7.74248 11.172V12.6H6.25752V11.172L5.72294 11.032C5.05581 10.8413 4.44546 10.5056 3.941 10.052L3.54006 9.695L2.22588 10.409L1.4834 9.191L2.79016 8.484L2.66394 7.973C2.5029 7.33322 2.5029 6.66678 2.66394 6.027L2.79016 5.516L1.4834 4.809L2.22588 3.591L3.54006 4.305ZM7.00018 9.80001C5.35995 9.80001 4.03027 8.54641 4.03027 7.00001C4.03027 5.45362 5.35995 4.20001 7.00018 4.20001C8.64041 4.20001 9.97009 5.45362 9.97009 7.00001C9.97009 8.54641 8.64041 9.80001 7.00018 9.80001ZM8.48495 7.00001C8.48495 7.7732 7.82012 8.40001 7 8.40001C6.17988 8.40001 5.51505 7.7732 5.51505 7.00001C5.51505 6.22681 6.17988 5.60001 7 5.60001C7.82012 5.60001 8.48495 6.22681 8.48495 7.00001Z" fill="white"/>
</svg>
