<svg width="16" height="16" viewBox="0 0 16 16" fill="none" xmlns="http://www.w3.org/2000/svg">
<path d="M7.778 4C6.118 4 5.082 4.81467 4.66667 6.44467C5.28867 5.62933 6.01533 5.32467 6.84467 5.528C7.318 5.644 7.656 5.98133 8.03 6.35467C8.64067 6.96267 9.36333 7.66667 10.8887 7.66667C12.5487 7.66667 13.5847 6.852 14 5.222C13.378 6.03733 12.6513 6.342 11.822 6.13867C11.3487 6.02267 11.0107 5.68533 10.6367 5.312C10.026 4.704 9.32 4 7.778 4ZM5.11133 8.33333C3.45133 8.33333 2.41533 9.148 2 10.778C2.622 9.96267 3.34867 9.658 4.178 9.86133C4.65133 9.97733 4.98933 10.3147 5.36333 10.688C5.974 11.296 6.68 12 8.222 12C9.882 12 10.918 11.1853 11.3333 9.55533C10.7113 10.3707 9.98467 10.6753 9.15533 10.472C8.682 10.356 8.344 10.0187 7.97 9.64533C7.35933 9.03733 6.65333 8.33333 5.11133 8.33333Z" stroke="#6B7280" stroke-linecap="round" stroke-linejoin="round"/>
</svg>
