<svg width="14" height="14" viewBox="0 0 14 14" fill="none" xmlns="http://www.w3.org/2000/svg">
<path fill-rule="evenodd" clip-rule="evenodd" d="M2.8 8.40589H1.4C0.626801 8.40589 0 7.77865 0 7.00491V1.40098C0 0.630442 0.63 0 1.4 0H9.8C10.5732 0 11.2 0.627241 11.2 1.40098V2.80196H12.6C13.3732 2.80196 14 3.42921 14 4.20295V13.3093C13.9961 13.5896 13.8256 13.8405 13.5666 13.9472C13.3076 14.0539 13.01 13.9959 12.81 13.7997L10.206 11.2079H4.2C3.4268 11.2079 2.8 10.5806 2.8 9.80687V8.40589ZM2.8 7.00491V4.20295C2.8 3.43241 3.43 2.80196 4.2 2.80196H9.8V1.40098H1.4V7.00491H2.8ZM4.2002 4.20294H12.6002V11.6211L10.9902 10.017C10.861 9.88503 10.6848 9.8095 10.5002 9.80687H4.2002V4.20294Z" fill="white"/>
</svg>
